<?xml version="1.0" encoding="UTF-8"?>
<svg width="116px" height="30px" viewBox="0 0 116 30" version="1.1" xmlns="http://www.w3.org/2000/svg" xmlns:xlink="http://www.w3.org/1999/xlink">
    <!-- Generator: Sketch 52.4 (67378) - http://www.bohemiancoding.com/sketch -->
    <title>Group 2</title>
    <desc>Created with Sketch.</desc>
    <g id="Page-1" stroke="none" stroke-width="1" fill="none" fill-rule="evenodd">
        <g id="Signin" transform="translate(-73.000000, -60.000000)">
            <g id="Group-2" transform="translate(73.000000, 60.000000)">
                <g id="Group-Copy">
                    <path d="M17.8272481,23.6344189 L6.99351667,29.4510432 C4.6064144,30.732677 1.7037213,29.6937075 0.510170165,27.1304398 C0.174667584,26.4099152 0,25.6154074 0,24.8098364 L0,13.0837637 C0,10.2179433 2.1635397,7.89473684 4.83240117,7.89473684 C5.58260775,7.89473684 6.3225115,8.0822947 6.99351667,8.44255699 L17.8272481,14.2591813 C20.2382214,15.5536315 21.2154614,18.7017091 20.0099748,21.2906095 C19.5376977,22.3048706 18.7718022,23.1272883 17.8272481,23.6344189 Z" id="Triangle" fill="#BD10E0" style="mix-blend-mode: darken;"></path>
                    <path d="M15.3588599,13.491156 L6.02518359,18.476834 C3.96860317,19.5753773 1.46782143,18.684832 0.439531219,16.4877454 C0.150482841,15.8701529 0,15.1891462 0,14.4986568 L0,4.44773734 C0,1.99131983 1.86397266,0 4.16329947,0 C4.80963129,0 5.44708683,0.160763874 6.02518359,0.469560124 L15.3588599,5.45523807 C17.4360061,6.56476681 18.277936,9.26311908 17.2393629,11.4821766 C16.832478,12.3515432 16.1726296,13.0564727 15.3588599,13.491156 Z" id="Triangle-Copy" fill="#2F17FD" style="mix-blend-mode: darken;"></path>
                </g>
                <path d="M39.4593301,5.36842105 L39.4593301,14.5055329 C40.4641199,13.4755796 41.6028644,12.9606106 42.8755981,12.9606106 C44.3418468,12.9606106 45.5624619,13.501328 46.5374801,14.582779 C47.5124982,15.6568732 48,16.9957925 48,18.599577 C48,20.2548591 47.5087768,21.6232052 46.5263158,22.7046562 C45.5512976,23.7787504 44.3195183,24.3157895 42.830941,24.3157895 C41.5730931,24.3157895 40.4492341,23.837604 39.4593301,22.8812188 L39.4736842,24.3157895 L36.9473684,24.3157895 L36.9473684,5.36842105 L39.4593301,5.36842105 Z M45.7894737,18.6927158 C45.7894737,17.6552369 45.5121042,16.8104454 44.9573569,16.1583158 C44.3953103,15.4913651 43.6909378,15.1578947 42.8442182,15.1578947 C41.9391042,15.1578947 41.2018853,15.4802494 40.6325394,16.1249684 C40.0704928,16.7622769 39.7894737,17.5922475 39.7894737,18.6149053 C39.7894737,19.6672053 40.0668432,20.5082916 40.6215905,21.1381895 C41.1763378,21.7829085 41.9062575,22.1052632 42.8113715,22.1052632 C43.6653904,22.1052632 44.3734125,21.7829085 44.9354591,21.1381895 C45.504805,20.4860599 45.7894737,19.6709102 45.7894737,18.6927158 Z M52.1052632,13.2631579 L52.1052632,24.3157895 L49.5789474,24.3157895 L49.5789474,13.2631579 L52.1052632,13.2631579 Z M54,13.2454914 L56.4996061,13.2454914 L56.4996061,14.2392344 C56.9810141,13.7386799 57.3920563,13.4000745 57.732745,13.2234082 C58.0956526,13.0393808 58.5511318,12.9473684 59.0991963,12.9473684 C60.3212321,12.9473684 61.2877368,13.4773594 61.9987394,14.5373574 C62.7838047,13.4773594 63.8465896,12.9473684 65.1871257,12.9473684 C67.6237909,12.9473684 68.8421053,14.4158852 68.8421053,17.3529628 L68.8421053,24.3157895 L66.3313899,24.3157895 L66.3313899,18.0264998 C66.3313899,16.9959463 66.205485,16.2672086 65.9536716,15.840265 C65.6944519,15.4059603 65.2685974,15.1888112 64.6760952,15.1888112 C63.9873114,15.1888112 63.4855436,15.4464457 63.1707769,15.9617225 C62.8560101,16.4769993 62.6986291,17.3051102 62.6986291,18.4460802 L62.6986291,24.3157895 L60.1879136,24.3157895 L60.1879136,18.0596246 C60.1879136,16.1457394 59.6324512,15.1888112 58.5215096,15.1888112 C57.8179133,15.1888112 57.3050363,15.4501262 56.9828632,15.9727641 C56.6606902,16.495402 56.4996061,17.3198324 56.4996061,18.4460802 L56.4996061,24.3157895 L54,24.3157895 L54,13.2454914 Z M80.7425411,19.2116004 L73.0207844,19.2116004 C73.0871609,20.0954471 73.3747879,20.7988312 73.8836742,21.3217738 C74.2229316,21.665492 74.8756303,21.9232793 75.84177,22.0951358 L75.84177,24.3157895 C73.8504893,23.9720765 72.5303418,23.4565018 71.8813275,22.7690655 C70.9078061,21.7305457 70.4210526,20.3532386 70.4210526,18.637103 C70.4210526,16.9356981 70.893056,15.558391 71.8370768,14.5051404 C72.7884727,13.4666206 74.0496066,12.9473684 75.6205163,12.9473684 C77.2061762,12.9473684 78.459935,13.45189 79.3818304,14.4609483 C80.2963505,15.4626412 80.7536038,16.8509962 80.7536038,18.6260549 L80.7425411,19.2116004 Z M78,17.0526316 C77.6497421,15.7894674 76.8039191,15.1578947 75.4625058,15.1578947 C75.1569617,15.1578947 74.8700526,15.2017539 74.6017699,15.2894737 C74.3334872,15.3771934 74.0894282,15.5035079 73.8695855,15.6684211 C73.6497427,15.8333342 73.4615751,16.0315778 73.3050769,16.2631579 C73.1485786,16.494738 73.0293437,16.7578933 72.9473684,17.0526316 L78,17.0526316 Z M90.3189793,5.36842105 L92.8421053,5.36842105 L92.8421053,24.006805 L90.3189793,24.006805 L90.3189793,22.8812188 C89.3290753,23.837604 88.2089377,24.3157895 86.9585327,24.3157895 C85.4699553,24.3157895 84.2344547,23.7787504 83.2519936,22.7046562 C82.2769755,21.6084916 81.7894737,20.2401455 81.7894737,18.599577 C81.7894737,16.9957925 82.2769755,15.6568732 83.2519936,14.582779 C84.2195689,13.501328 85.4364626,12.9606106 86.9027113,12.9606106 C88.175445,12.9606106 89.3141896,13.4755796 90.3189793,14.5055329 L90.3189793,5.36842105 Z M84,18.5815579 C84,19.6190368 84.2737199,20.4638283 84.8211679,21.1159579 C85.3832145,21.775498 86.0912366,22.1052632 86.9452555,22.1052632 C87.8576688,22.1052632 88.5948877,21.7866137 89.1569343,21.1493053 C89.7189809,20.4897651 90,19.652384 90,18.6371368 C90,17.6218897 89.7189809,16.7845086 89.1569343,16.1249684 C88.5948877,15.4802494 87.864968,15.1578947 86.9671533,15.1578947 C86.1204337,15.1578947 85.4124116,15.4839546 84.8430657,16.1360842 C84.2810191,16.7956244 84,17.6107741 84,18.5815579 Z M94.4210526,18.5487187 C94.4210526,16.9946217 94.9870771,15.6725542 96.1191429,14.5824766 C97.2512087,13.492399 98.630659,12.9473684 100.257535,12.9473684 C101.891908,12.9473684 103.278856,13.4960817 104.418419,14.5935246 C105.542987,15.6909676 106.105263,17.0388136 106.105263,18.637103 C106.105263,20.2501231 105.539239,21.6016518 104.407173,22.6917293 C103.26761,23.7744415 101.869417,24.3157895 100.212553,24.3157895 C98.5706822,24.3157895 97.1949805,23.7633936 96.085406,22.6585852 C94.9758315,21.5685077 94.4210526,20.1985659 94.4210526,18.5487187 Z M96.9473684,18.5815579 C96.9473684,19.6635001 97.2309762,20.5194074 97.7982002,21.1493053 C98.3799684,21.7866137 99.1471637,22.1052632 100.099809,22.1052632 C101.059727,22.1052632 101.826922,21.7903189 102.401418,21.1604211 C102.975914,20.5305232 103.263158,19.6894368 103.263158,18.6371368 C103.263158,17.5848368 102.975914,16.7437505 102.401418,16.1138526 C101.81965,15.4765442 101.052455,15.1578947 100.099809,15.1578947 C99.1617079,15.1578947 98.4017846,15.4765442 97.8200164,16.1138526 C97.2382482,16.7511611 96.9473684,17.5737213 96.9473684,18.5815579 Z M115.894737,13.7096824 L115.894737,17.0130428 C115.330188,16.3206962 114.824302,15.8456358 114.377062,15.5878472 C113.937154,15.3226932 113.42027,15.1901182 112.826394,15.1901182 C111.895256,15.1901182 111.121763,15.517873 110.505892,16.1733927 C109.89002,16.8289123 109.58209,17.6501408 109.58209,18.637103 C109.58209,19.6461613 109.879023,20.4747551 110.472899,21.1229093 C111.074106,21.7710635 111.840268,22.0951358 112.771406,22.0951358 C113.365282,22.0951358 113.889498,21.9662434 114.344069,21.7084548 C114.783977,21.4580316 115.300861,20.9719232 115.894737,20.2501151 L115.894737,23.5313795 C114.89028,24.0543221 113.885839,24.3157895 112.881383,24.3157895 C111.224396,24.3157895 109.838707,23.7781241 108.724273,22.7027774 C107.60984,21.6200652 107.052632,20.2759018 107.052632,18.670247 C107.052632,17.0645922 107.617172,15.709381 108.746269,14.6045727 C109.875366,13.4997643 111.261055,12.9473684 112.903378,12.9473684 C113.959157,12.9473684 114.956267,13.2014705 115.894737,13.7096824 Z" id="bimedoc.-copy-2" fill="#1B2B45"></path>
                <rect id="Rectangle-12" fill="#2F17FD" x="49.5789474" y="9.47368421" width="2.52631579" height="2.52631579"></rect>
                <rect id="Rectangle-12-Copy" fill="#BD10E0" x="78" y="21.7894737" width="2.52631579" height="2.52631579"></rect>
            </g>
        </g>
    </g>
</svg>