<?xml version="1.0" encoding="UTF-8"?>
<svg width="50px" height="50px" viewBox="0 0 50 50" version="1.1" xmlns="http://www.w3.org/2000/svg" xmlns:xlink="http://www.w3.org/1999/xlink">
    <!-- Generator: Sketch 52.4 (67378) - http://www.bohemiancoding.com/sketch -->
    <title>ajout patient copy</title>
    <desc>Created with Sketch.</desc>
    <g id="Symbols" stroke="none" stroke-width="1" fill="none" fill-rule="evenodd">
        <g id="ajout-patient">
            <g id="ajout-patient-copy">
                <ellipse id="Oval-2" fill="#2F17FD" cx="24.8997182" cy="24.8402771" rx="24.8997182" ry="24.8402771"></ellipse>
                <path d="M33.7906782,36.3780237 L17.945403,36.3780237 C16.9730581,36.3780237 16.1848168,35.58364 16.1848168,34.6037181 L16.1848168,14.1992048 C16.1848168,13.2192829 16.9730581,12.4248993 17.945403,12.4248993 L29.3363953,12.4248993 C29.6055847,12.3972341 29.873113,12.4911114 30.0670385,12.6812864 L35.2695705,17.9252464 C35.4535032,18.112848 35.546778,18.372163 35.5248555,18.6349686 L35.5512643,18.6349686 L35.5512643,34.6037181 C35.5512643,35.0742932 35.3657745,35.5255948 35.0356006,35.8583416 C34.7054266,36.1910884 34.2576147,36.3780237 33.7906782,36.3780237 L33.7906782,36.3780237 Z M29.3892129,14.6232638 L29.3892129,18.6349686 L33.3681375,18.6349686 L29.3892129,14.6232638 Z M33.7906782,20.4092741 L28.5089198,20.4092741 C28.0227473,20.4092741 27.6286267,20.0120823 27.6286267,19.5221213 L27.6286267,14.1992048 L17.945403,14.1992048 L17.945403,34.6037181 L33.7906782,34.6037181 L33.7906782,20.4092741 L33.7906782,20.4092741 Z M23.2271614,26.6193434 L24.9877475,26.6193434 L24.9877475,24.8450378 C24.9877475,24.3550769 25.3818681,23.9578851 25.8680406,23.9578851 C26.354213,23.9578851 26.7483336,24.3550769 26.7483336,24.8450378 L26.7483336,26.6193434 L28.5089198,26.6193434 C28.9950922,26.6193434 29.3892129,27.0165352 29.3892129,27.5064961 C29.3892129,27.996457 28.9950922,28.3936489 28.5089198,28.3936489 L26.7483336,28.3936489 L26.7483336,30.1679544 C26.7483336,30.6579153 26.354213,31.0551071 25.8680406,31.0551071 C25.3818681,31.0551071 24.9877475,30.6579153 24.9877475,30.1679544 L24.9877475,28.3936489 L23.2271614,28.3936489 C22.7409889,28.3936489 22.3468683,27.996457 22.3468683,27.5064961 C22.3468683,27.0165352 22.7409889,26.6193434 23.2271614,26.6193434 L23.2271614,26.6193434 Z" id="ajout-patient" fill="#FFFFFF"></path>
            </g>
        </g>
    </g>
</svg>