<?xml version="1.0" standalone="no"?>
<!DOCTYPE svg PUBLIC "-//W3C//DTD SVG 20010904//EN"
 "http://www.w3.org/TR/2001/REC-SVG-20010904/DTD/svg10.dtd">
<svg version="1.0" xmlns="http://www.w3.org/2000/svg"
 width="908.000000pt" height="908.000000pt" viewBox="0 0 908.000000 908.000000"
 preserveAspectRatio="xMidYMid meet">
<metadata>
Created by potrace 1.11, written by Peter Selinger 2001-2013
</metadata>
<g transform="translate(0.000000,908.000000) scale(0.100000,-0.100000)"
fill="#000000" stroke="none">
<path d="M3277 9011 c-39 -38 -88 -83 -107 -101 -30 -28 -224 -210 -340 -320
-66 -62 -311 -294 -350 -330 -20 -19 -95 -89 -165 -155 -70 -66 -149 -140
-175 -165 -49 -47 -296 -280 -365 -345 -22 -20 -68 -63 -103 -96 -34 -32 -67
-59 -72 -59 -7 0 -10 -1249 -10 -3720 l0 -3720 880 0 880 0 0 1720 c0 946 3
1720 8 1720 4 -1 68 -92 142 -203 74 -111 137 -204 140 -207 14 -14 110 -162
110 -170 0 -4 4 -10 8 -12 5 -1 87 -120 182 -263 96 -143 177 -262 180 -265 3
-3 88 -128 189 -279 101 -150 211 -314 245 -365 33 -50 64 -93 69 -94 4 -2 7
-8 7 -13 0 -9 47 -78 80 -116 5 -7 10 -14 10 -17 0 -8 194 -291 202 -294 4 -2
8 -8 8 -13 0 -6 20 -39 45 -75 25 -35 45 -67 45 -70 0 -3 6 -12 13 -19 29 -33
37 -45 37 -54 0 -5 3 -11 8 -13 10 -5 72 -97 72 -108 0 -6 4 -10 8 -10 5 0 15
-12 23 -27 8 -16 17 -30 20 -33 6 -5 345 -507 364 -538 6 -9 34 -52 63 -94 50
-74 55 -78 90 -78 52 -1 1589 -1 1690 0 l83 0 -39 57 c-127 184 -942 1415
-942 1422 0 5 -4 11 -8 13 -5 1 -253 370 -550 818 -298 448 -545 820 -549 825
-40 53 -73 105 -73 113 0 6 -4 12 -9 14 -11 4 -112 161 -109 169 3 6 80 91
214 235 16 17 76 82 134 144 58 61 125 134 150 160 25 27 81 87 125 135 44 48
101 108 126 135 25 27 88 95 140 152 52 57 250 260 442 451 l347 348 0 1061 0
1060 -134 137 c-148 150 -301 307 -644 660 -538 554 -835 860 -891 919 l-40
42 -916 0 -915 0 -73 -69z m178 -1691 c12 4 28 5 35 0 7 -5 24 -4 36 0 14 6
26 5 29 0 3 -6 15 -6 29 0 13 5 26 6 29 3 8 -7 106 -8 113 0 3 3 19 1 35 -3
16 -5 29 -6 29 -2 0 8 109 6 117 -2 3 -3 13 -1 22 4 10 5 23 5 30 0 8 -4 27
-4 42 0 16 5 29 5 29 0 0 -5 13 -5 29 0 15 4 33 5 40 1 6 -4 34 -5 61 -1 27 4
55 3 62 -1 6 -4 19 -4 28 1 9 5 22 5 29 0 8 -4 27 -4 42 0 16 5 29 5 29 0 0
-5 13 -5 29 0 15 4 33 5 40 1 6 -4 34 -5 61 -1 27 4 55 3 61 -1 7 -4 25 -3 40
1 16 5 31 5 34 0 3 -5 16 -5 30 0 15 6 27 6 30 0 3 -6 15 -6 29 0 13 5 26 6
29 3 8 -7 106 -8 113 0 3 3 19 1 35 -3 16 -5 29 -6 29 -2 0 8 108 7 116 -1 3
-3 19 -1 35 3 16 5 31 5 34 0 3 -5 12 -7 20 -3 13 4 15 -127 15 -1057 l0
-1062 -25 4 c-14 3 -28 1 -31 -4 -3 -5 -12 -4 -20 3 -8 6 -14 7 -14 2 0 -5
-20 -7 -48 -3 -27 3 -60 3 -73 0 -13 -4 -33 -4 -44 0 -11 4 -30 4 -42 -1 -16
-6 -23 -5 -24 4 0 7 -2 8 -5 1 -3 -6 -22 -8 -53 -4 -26 3 -59 3 -72 0 -13 -4
-33 -4 -44 0 -11 4 -30 4 -42 -1 -16 -6 -23 -5 -24 4 0 7 -2 8 -5 1 -3 -6 -22
-8 -53 -4 -26 3 -59 3 -72 0 -13 -4 -33 -4 -44 0 -11 4 -30 4 -42 -1 -16 -6
-23 -5 -24 4 0 7 -2 8 -5 1 -3 -6 -22 -8 -53 -4 -26 3 -59 3 -72 0 -13 -4 -33
-4 -44 0 -11 4 -30 4 -42 -1 -16 -6 -23 -5 -24 4 0 7 -2 8 -5 1 -3 -6 -22 -8
-53 -4 -26 3 -59 3 -73 -1 -14 -4 -31 -3 -38 1 -7 4 -24 5 -38 1 -14 -4 -47
-4 -74 -1 -26 4 -53 3 -60 -1 -6 -4 -22 -3 -34 1 -14 6 -26 5 -29 0 -3 -5 -18
-5 -34 0 -15 4 -34 4 -42 0 -7 -5 -17 -6 -21 -4 -12 7 -157 8 -164 1 -4 -3
-16 -2 -28 3 -12 4 -29 4 -37 0 -12 -7 -14 130 -11 1055 l2 1064 33 3 c17 2
36 0 41 -4 5 -3 18 -3 31 2z"/>
</g>
</svg>
